<?xml version="1.0" encoding="UTF-8"?>
<svg xmlns="http://www.w3.org/2000/svg" width="512" height="512" viewBox="0 0 512 512">
<rect width="100%" height="100%" fill="#ffffff"/>
<rect x="110" y="36" width="72" height="6" fill="#007dcaff" />
<rect x="179" y="39" width="6" height="5" fill="#007dcaff" />
<rect x="147" y="195" width="6" height="164" fill="#007dcaff" />
<rect x="141" y="356" width="9" height="6" fill="#007dcaff" />
<rect x="150" y="41" width="32" height="6" fill="#007dcaff" />
<rect x="147" y="44" width="6" height="151" fill="#007dcaff" />
<rect x="272" y="69" width="6" height="100" fill="#007dcaff" />
<rect x="266" y="166" width="9" height="6" fill="#007dcaff" />
<rect x="275" y="258" width="6" height="132" fill="#007dcaff" />
<rect x="278" y="387" width="6" height="6" fill="#007dcaff" />
<rect x="275" y="66" width="9" height="6" fill="#007dcaff" />
<rect x="281" y="69" width="6" height="321" fill="#007dcaff" />
<rect x="147" y="195" width="6" height="195" fill="#007dcaff" />
<rect x="150" y="387" width="134" height="6" fill="#007dcaff" />
<rect x="323" y="59" width="6" height="93" fill="#007dcaff" />
<rect x="326" y="149" width="25" height="6" fill="#007dcaff" />
<rect x="351" y="221" width="6" height="149" fill="#007dcaff" />
<rect x="350" y="367" width="4" height="6" fill="#007dcaff" />
<rect x="326" y="56" width="28" height="6" fill="#007dcaff" />
<rect x="351" y="59" width="6" height="162" fill="#007dcaff" />
<rect x="147" y="195" width="6" height="26" fill="#007dcaff" />
<rect x="150" y="218" width="204" height="6" fill="#007dcaff" />
<rect x="45" y="466" width="6" height="11" fill="#007dcaff" />
<rect x="48" y="474" width="61" height="6" fill="#007dcaff" />
<rect x="147" y="195" width="6" height="282" fill="#007dcaff" />
<rect x="109" y="474" width="41" height="6" fill="#007dcaff" />
<rect x="423" y="61" width="6" height="121" fill="#007dcaff" />
<rect x="426" y="179" width="51" height="6" fill="#007dcaff" />
<rect x="406" y="179" width="71" height="6" fill="#007dcaff" />
<rect x="403" y="182" width="6" height="122" fill="#007dcaff" />
<rect x="406" y="301" width="24" height="6" fill="#007dcaff" />
<rect x="427" y="304" width="6" height="183" fill="#007dcaff" />
<rect x="150" y="192" width="280" height="6" fill="#007dcaff" />
<rect x="427" y="195" width="6" height="292" fill="#007dcaff" />
<rect x="406" y="384" width="88" height="109" fill="#000000" stroke="#000000" stroke-width="1" />
<rect x="15" y="455" width="58" height="43" fill="#000000" stroke="#000000" stroke-width="1" />
<rect x="107" y="455" width="70" height="40" fill="#000000" stroke="#000000" stroke-width="1" />
<rect x="322" y="213" width="40" height="60" fill="#000000" stroke="#000000" stroke-width="1" />
<rect x="458" y="162" width="40" height="44" fill="#000000" stroke="#000000" stroke-width="1" />
<rect x="392" y="270" width="42" height="51" fill="#000000" stroke="#000000" stroke-width="1" />
<rect x="322" y="34" width="40" height="62" fill="#000000" stroke="#000000" stroke-width="1" />
<rect x="322" y="133" width="40" height="52" fill="#000000" stroke="#000000" stroke-width="1" />
<rect x="322" y="367" width="40" height="52" fill="#000000" stroke="#000000" stroke-width="1" />
<rect x="391" y="37" width="40" height="83" fill="#000000" stroke="#000000" stroke-width="1" />
<rect x="112" y="345" width="64" height="61" fill="#000000" stroke="#000000" stroke-width="1" />
<rect x="251" y="29" width="40" height="74" fill="#000000" stroke="#000000" stroke-width="1" />
<rect x="249" y="150" width="43" height="42" fill="#000000" stroke="#000000" stroke-width="1" />
<rect x="250" y="224" width="44" height="41" fill="#000000" stroke="#000000" stroke-width="1" />
<rect x="254" y="309" width="40" height="107" fill="#000000" stroke="#000000" stroke-width="1" />
<rect x="75" y="15" width="41" height="53" fill="#000000" stroke="#000000" stroke-width="1" />
<rect x="151" y="22" width="66" height="41" fill="#000000" stroke="#000000" stroke-width="1" />
<rect x="82" y="170" width="99" height="130" fill="#000000" stroke="#000000" stroke-width="1" />
</svg>
