<?xml version="1.0" encoding="UTF-8"?>
<svg xmlns="http://www.w3.org/2000/svg" width="256" height="256" viewBox="0 0 256 256">
<rect width="100%" height="100%" fill="#ffffff"/>
<rect x="81" y="20" width="6" height="11" fill="#007dcaff" />
<rect x="84" y="28" width="119" height="6" fill="#007dcaff" />
<rect x="133" y="85" width="100" height="6" fill="#007dcaff" />
<rect x="230" y="88" width="6" height="24" fill="#007dcaff" />
<rect x="59" y="89" width="174" height="6" fill="#007dcaff" />
<rect x="230" y="92" width="6" height="20" fill="#007dcaff" />
<rect x="84" y="17" width="149" height="6" fill="#007dcaff" />
<rect x="230" y="20" width="6" height="92" fill="#007dcaff" />
<rect x="61" y="170" width="28" height="6" fill="#007dcaff" />
<rect x="86" y="173" width="6" height="11" fill="#007dcaff" />
<rect x="149" y="214" width="6" height="26" fill="#007dcaff" />
<rect x="152" y="211" width="73" height="6" fill="#007dcaff" />
<rect x="86" y="184" width="6" height="56" fill="#007dcaff" />
<rect x="89" y="237" width="63" height="6" fill="#007dcaff" />
<rect x="84" y="17" width="5" height="6" fill="#007dcaff" />
<rect x="86" y="20" width="6" height="164" fill="#007dcaff" />
<rect x="62" y="7" width="67" height="63" fill="#000000" stroke="#000000" stroke-width="1" />
<rect x="188" y="5" width="47" height="56" fill="#000000" stroke="#000000" stroke-width="1" />
<rect x="45" y="90" width="49" height="43" fill="#000000" stroke="#000000" stroke-width="1" />
<rect x="7" y="150" width="56" height="80" fill="#000000" stroke="#000000" stroke-width="1" />
<rect x="75" y="183" width="41" height="58" fill="#000000" stroke="#000000" stroke-width="1" />
<rect x="143" y="180" width="44" height="65" fill="#000000" stroke="#000000" stroke-width="1" />
<rect x="202" y="174" width="40" height="64" fill="#000000" stroke="#000000" stroke-width="1" />
<rect x="114" y="83" width="51" height="53" fill="#000000" stroke="#000000" stroke-width="1" />
<rect x="180" y="86" width="69" height="48" fill="#000000" stroke="#000000" stroke-width="1" />
</svg>
