<?xml version="1.0" encoding="UTF-8"?>
<svg xmlns="http://www.w3.org/2000/svg" width="512" height="512" viewBox="0 0 512 512">
<rect width="100%" height="100%" fill="#ffffff"/>
<rect x="376" y="343" width="136" height="169" fill="#ffffff" stroke="#000000" stroke-width="1" />
<rect x="0" y="435" width="87" height="77" fill="#ffffff" stroke="#000000" stroke-width="1" />
<rect x="87" y="435" width="106" height="77" fill="#ffffff" stroke="#000000" stroke-width="1" />
<rect x="0" y="367" width="61" height="68" fill="#ffffff" stroke="#000000" stroke-width="1" />
<rect x="308" y="199" width="68" height="88" fill="#ffffff" stroke="#000000" stroke-width="1" />
<rect x="314" y="435" width="62" height="77" fill="#ffffff" stroke="#000000" stroke-width="1" />
<rect x="376" y="134" width="67" height="116" fill="#ffffff" stroke="#000000" stroke-width="1" />
<rect x="443" y="134" width="69" height="116" fill="#ffffff" stroke="#000000" stroke-width="1" />
<rect x="376" y="250" width="73" height="93" fill="#ffffff" stroke="#000000" stroke-width="1" />
<rect x="449" y="250" width="63" height="93" fill="#ffffff" stroke="#000000" stroke-width="1" />
<rect x="308" y="0" width="68" height="119" fill="#ffffff" stroke="#000000" stroke-width="1" />
<rect x="308" y="119" width="68" height="80" fill="#ffffff" stroke="#000000" stroke-width="1" />
<rect x="0" y="0" width="61" height="173" fill="#ffffff" stroke="#000000" stroke-width="1" />
<rect x="308" y="287" width="68" height="63" fill="#ffffff" stroke="#000000" stroke-width="1" />
<rect x="308" y="350" width="68" height="85" fill="#ffffff" stroke="#000000" stroke-width="1" />
<rect x="376" y="0" width="72" height="134" fill="#ffffff" stroke="#000000" stroke-width="1" />
<rect x="193" y="435" width="60" height="77" fill="#ffffff" stroke="#000000" stroke-width="1" />
<rect x="253" y="435" width="61" height="77" fill="#ffffff" stroke="#000000" stroke-width="1" />
<rect x="0" y="173" width="61" height="83" fill="#ffffff" stroke="#000000" stroke-width="1" />
<rect x="0" y="256" width="61" height="111" fill="#ffffff" stroke="#000000" stroke-width="1" />
<rect x="61" y="321" width="174" height="114" fill="#ffffff" stroke="#000000" stroke-width="1" />
<rect x="235" y="0" width="73" height="125" fill="#ffffff" stroke="#000000" stroke-width="1" />
<rect x="235" y="125" width="73" height="83" fill="#ffffff" stroke="#000000" stroke-width="1" />
<rect x="235" y="208" width="73" height="73" fill="#ffffff" stroke="#000000" stroke-width="1" />
<rect x="235" y="281" width="73" height="154" fill="#ffffff" stroke="#000000" stroke-width="1" />
<rect x="61" y="0" width="70" height="82" fill="#ffffff" stroke="#000000" stroke-width="1" />
<rect x="131" y="0" width="104" height="82" fill="#ffffff" stroke="#000000" stroke-width="1" />
<rect x="448" y="0" width="64" height="61" fill="#ffffff" stroke="#000000" stroke-width="1" />
<rect x="448" y="61" width="64" height="73" fill="#ffffff" stroke="#000000" stroke-width="1" />
<rect x="61" y="82" width="174" height="64" fill="#ffffff" stroke="#000000" stroke-width="1" />
<rect x="61" y="146" width="174" height="175" fill="#ffffff" stroke="#000000" stroke-width="1" />
</svg>
