<?xml version="1.0" encoding="UTF-8"?>
<svg xmlns="http://www.w3.org/2000/svg" width="512" height="512" viewBox="0 0 512 512">
<rect width="100%" height="100%" fill="#ffffff"/>
<rect x="406" y="384" width="88" height="109" fill="#000000" stroke="#000000" stroke-width="1" />
<rect x="15" y="455" width="58" height="43" fill="#000000" stroke="#000000" stroke-width="1" />
<rect x="107" y="455" width="70" height="40" fill="#000000" stroke="#000000" stroke-width="1" />
<rect x="322" y="213" width="40" height="60" fill="#000000" stroke="#000000" stroke-width="1" />
<rect x="458" y="162" width="40" height="44" fill="#000000" stroke="#000000" stroke-width="1" />
<rect x="392" y="270" width="42" height="51" fill="#000000" stroke="#000000" stroke-width="1" />
<rect x="322" y="34" width="40" height="62" fill="#000000" stroke="#000000" stroke-width="1" />
<rect x="322" y="133" width="40" height="52" fill="#000000" stroke="#000000" stroke-width="1" />
<rect x="322" y="367" width="40" height="52" fill="#000000" stroke="#000000" stroke-width="1" />
<rect x="391" y="37" width="40" height="83" fill="#000000" stroke="#000000" stroke-width="1" />
<rect x="112" y="345" width="64" height="61" fill="#000000" stroke="#000000" stroke-width="1" />
<rect x="251" y="29" width="40" height="74" fill="#000000" stroke="#000000" stroke-width="1" />
<rect x="249" y="150" width="43" height="42" fill="#000000" stroke="#000000" stroke-width="1" />
<rect x="250" y="224" width="44" height="41" fill="#000000" stroke="#000000" stroke-width="1" />
<rect x="254" y="309" width="40" height="107" fill="#000000" stroke="#000000" stroke-width="1" />
<rect x="75" y="15" width="41" height="53" fill="#000000" stroke="#000000" stroke-width="1" />
<rect x="151" y="22" width="66" height="41" fill="#000000" stroke="#000000" stroke-width="1" />
<rect x="82" y="170" width="99" height="130" fill="#000000" stroke="#000000" stroke-width="1" />
</svg>
