<?xml version="1.0" encoding="UTF-8"?>
<svg xmlns="http://www.w3.org/2000/svg" width="512" height="512" viewBox="0 0 512 512">
<rect width="100%" height="100%" fill="#ffffff"/>
<rect x="46" y="35" width="6" height="8" fill="#007dcaff" />
<rect x="49" y="40" width="79" height="6" fill="#007dcaff" />
<rect x="22" y="137" width="87" height="6" fill="#007dcaff" />
<rect x="106" y="86" width="6" height="54" fill="#007dcaff" />
<rect x="125" y="43" width="6" height="43" fill="#007dcaff" />
<rect x="109" y="83" width="19" height="6" fill="#007dcaff" />
<rect x="246" y="23" width="6" height="7" fill="#007dcaff" />
<rect x="249" y="27" width="89" height="6" fill="#007dcaff" />
<rect x="191" y="20" width="58" height="6" fill="#007dcaff" />
<rect x="249" y="20" width="1" height="6" fill="#007dcaff" />
<rect x="263" y="107" width="70" height="6" fill="#007dcaff" />
<rect x="330" y="110" width="6" height="38" fill="#007dcaff" />
<rect x="193" y="143" width="6" height="5" fill="#007dcaff" />
<rect x="196" y="145" width="137" height="6" fill="#007dcaff" />
<rect x="246" y="23" width="6" height="120" fill="#007dcaff" />
<rect x="196" y="140" width="53" height="6" fill="#007dcaff" />
<rect x="377" y="24" width="6" height="22" fill="#007dcaff" />
<rect x="380" y="21" width="115" height="6" fill="#007dcaff" />
<rect x="416" y="21" width="79" height="6" fill="#007dcaff" />
<rect x="413" y="24" width="6" height="75" fill="#007dcaff" />
<rect x="246" y="23" width="6" height="1" fill="#007dcaff" />
<rect x="249" y="21" width="246" height="6" fill="#007dcaff" />
<rect x="125" y="23" width="6" height="20" fill="#007dcaff" />
<rect x="128" y="20" width="121" height="6" fill="#007dcaff" />
<rect x="11" y="286" width="67" height="6" fill="#007dcaff" />
<rect x="8" y="289" width="6" height="56" fill="#007dcaff" />
<rect x="11" y="210" width="46" height="6" fill="#007dcaff" />
<rect x="8" y="213" width="6" height="132" fill="#007dcaff" />
<rect x="123" y="199" width="10" height="6" fill="#007dcaff" />
<rect x="120" y="202" width="6" height="77" fill="#007dcaff" />
<rect x="212" y="223" width="6" height="43" fill="#007dcaff" />
<rect x="184" y="263" width="31" height="6" fill="#007dcaff" />
<rect x="123" y="276" width="61" height="6" fill="#007dcaff" />
<rect x="181" y="266" width="6" height="13" fill="#007dcaff" />
<rect x="100" y="361" width="98" height="6" fill="#007dcaff" />
<rect x="195" y="348" width="6" height="16" fill="#007dcaff" />
<rect x="120" y="279" width="6" height="69" fill="#007dcaff" />
<rect x="123" y="345" width="75" height="6" fill="#007dcaff" />
<rect x="11" y="342" width="112" height="6" fill="#007dcaff" />
<rect x="120" y="279" width="6" height="66" fill="#007dcaff" />
<rect x="242" y="297" width="25" height="6" fill="#007dcaff" />
<rect x="264" y="300" width="6" height="78" fill="#007dcaff" />
<rect x="242" y="218" width="3" height="6" fill="#007dcaff" />
<rect x="239" y="221" width="6" height="79" fill="#007dcaff" />
<rect x="312" y="200" width="33" height="6" fill="#007dcaff" />
<rect x="342" y="203" width="6" height="119" fill="#007dcaff" />
<rect x="242" y="203" width="6" height="18" fill="#007dcaff" />
<rect x="245" y="200" width="67" height="6" fill="#007dcaff" />
<rect x="8" y="203" width="6" height="142" fill="#007dcaff" />
<rect x="11" y="200" width="301" height="6" fill="#007dcaff" />
<rect x="44" y="433" width="6" height="53" fill="#007dcaff" />
<rect x="39" y="483" width="8" height="6" fill="#007dcaff" />
<rect x="120" y="427" width="6" height="71" fill="#007dcaff" />
<rect x="123" y="495" width="1" height="6" fill="#007dcaff" />
<rect x="47" y="430" width="76" height="6" fill="#007dcaff" />
<rect x="120" y="433" width="6" height="65" fill="#007dcaff" />
<rect x="209" y="423" width="25" height="6" fill="#007dcaff" />
<rect x="231" y="426" width="6" height="46" fill="#007dcaff" />
<rect x="44" y="433" width="6" height="39" fill="#007dcaff" />
<rect x="47" y="469" width="187" height="6" fill="#007dcaff" />
<rect x="311" y="429" width="6" height="75" fill="#007dcaff" />
<rect x="314" y="501" width="15" height="6" fill="#007dcaff" />
<rect x="44" y="429" width="6" height="4" fill="#007dcaff" />
<rect x="47" y="426" width="267" height="6" fill="#007dcaff" />
<rect x="8" y="345" width="6" height="88" fill="#007dcaff" />
<rect x="11" y="430" width="36" height="6" fill="#007dcaff" />
<rect x="400" y="209" width="6" height="102" fill="#007dcaff" />
<rect x="385" y="308" width="18" height="6" fill="#007dcaff" />
<rect x="488" y="261" width="6" height="62" fill="#007dcaff" />
<rect x="459" y="320" width="32" height="6" fill="#007dcaff" />
<rect x="382" y="261" width="6" height="50" fill="#007dcaff" />
<rect x="385" y="258" width="106" height="6" fill="#007dcaff" />
<rect x="400" y="374" width="4" height="6" fill="#007dcaff" />
<rect x="401" y="377" width="6" height="115" fill="#007dcaff" />
<rect x="455" y="380" width="19" height="6" fill="#007dcaff" />
<rect x="471" y="383" width="6" height="109" fill="#007dcaff" />
<rect x="401" y="383" width="6" height="109" fill="#007dcaff" />
<rect x="404" y="380" width="51" height="6" fill="#007dcaff" />
<rect x="455" y="258" width="36" height="6" fill="#007dcaff" />
<rect x="452" y="261" width="6" height="122" fill="#007dcaff" />
<rect x="11" y="342" width="480" height="6" fill="#007dcaff" />
<rect x="488" y="261" width="6" height="84" fill="#007dcaff" />
<rect x="249" y="20" width="242" height="6" fill="#007dcaff" />
<rect x="488" y="23" width="6" height="238" fill="#007dcaff" />
<rect x="175" y="18" width="40" height="47" fill="#000000" stroke="#000000" stroke-width="1" />
<rect x="171" y="109" width="45" height="54" fill="#000000" stroke="#000000" stroke-width="1" />
<rect x="289" y="397" width="57" height="47" fill="#000000" stroke="#000000" stroke-width="1" />
<rect x="296" y="465" width="59" height="41" fill="#000000" stroke="#000000" stroke-width="1" />
<rect x="370" y="183" width="50" height="45" fill="#000000" stroke="#000000" stroke-width="1" />
<rect x="368" y="264" width="46" height="52" fill="#000000" stroke="#000000" stroke-width="1" />
<rect x="382" y="366" width="42" height="61" fill="#000000" stroke="#000000" stroke-width="1" />
<rect x="369" y="445" width="58" height="59" fill="#000000" stroke="#000000" stroke-width="1" />
<rect x="11" y="175" width="67" height="72" fill="#000000" stroke="#000000" stroke-width="1" />
<rect x="243" y="187" width="45" height="52" fill="#000000" stroke="#000000" stroke-width="1" />
<rect x="302" y="190" width="55" height="63" fill="#000000" stroke="#000000" stroke-width="1" />
<rect x="298" y="300" width="51" height="70" fill="#000000" stroke="#000000" stroke-width="1" />
<rect x="374" y="94" width="127" height="65" fill="#000000" stroke="#000000" stroke-width="1" />
<rect x="7" y="11" width="53" height="47" fill="#000000" stroke="#000000" stroke-width="1" />
<rect x="82" y="7" width="55" height="54" fill="#000000" stroke="#000000" stroke-width="1" />
<rect x="454" y="382" width="53" height="45" fill="#000000" stroke="#000000" stroke-width="1" />
<rect x="449" y="455" width="53" height="51" fill="#000000" stroke="#000000" stroke-width="1" />
<rect x="231" y="19" width="50" height="51" fill="#000000" stroke="#000000" stroke-width="1" />
<rect x="295" y="15" width="53" height="40" fill="#000000" stroke="#000000" stroke-width="1" />
<rect x="5" y="74" width="53" height="85" fill="#000000" stroke="#000000" stroke-width="1" />
<rect x="93" y="82" width="43" height="83" fill="#000000" stroke="#000000" stroke-width="1" />
<rect x="96" y="321" width="59" height="59" fill="#000000" stroke="#000000" stroke-width="1" />
<rect x="174" y="330" width="40" height="49" fill="#000000" stroke="#000000" stroke-width="1" />
<rect x="107" y="403" width="53" height="43" fill="#000000" stroke="#000000" stroke-width="1" />
<rect x="108" y="457" width="42" height="46" fill="#000000" stroke="#000000" stroke-width="1" />
<rect x="238" y="86" width="40" height="54" fill="#000000" stroke="#000000" stroke-width="1" />
<rect x="306" y="91" width="51" height="65" fill="#000000" stroke="#000000" stroke-width="1" />
<rect x="231" y="266" width="51" height="54" fill="#000000" stroke="#000000" stroke-width="1" />
<rect x="236" y="333" width="51" height="50" fill="#000000" stroke="#000000" stroke-width="1" />
<rect x="368" y="15" width="67" height="53" fill="#000000" stroke="#000000" stroke-width="1" />
<rect x="455" y="13" width="42" height="57" fill="#000000" stroke="#000000" stroke-width="1" />
<rect x="100" y="177" width="55" height="46" fill="#000000" stroke="#000000" stroke-width="1" />
<rect x="100" y="244" width="46" height="47" fill="#000000" stroke="#000000" stroke-width="1" />
<rect x="39" y="264" width="42" height="47" fill="#000000" stroke="#000000" stroke-width="1" />
<rect x="6" y="329" width="77" height="54" fill="#000000" stroke="#000000" stroke-width="1" />
<rect x="172" y="396" width="60" height="50" fill="#000000" stroke="#000000" stroke-width="1" />
<rect x="212" y="460" width="47" height="40" fill="#000000" stroke="#000000" stroke-width="1" />
<rect x="165" y="195" width="53" height="45" fill="#000000" stroke="#000000" stroke-width="1" />
<rect x="166" y="254" width="53" height="52" fill="#000000" stroke="#000000" stroke-width="1" />
<rect x="435" y="187" width="63" height="83" fill="#000000" stroke="#000000" stroke-width="1" />
<rect x="451" y="304" width="44" height="48" fill="#000000" stroke="#000000" stroke-width="1" />
<rect x="10" y="395" width="52" height="42" fill="#000000" stroke="#000000" stroke-width="1" />
<rect x="27" y="456" width="52" height="48" fill="#000000" stroke="#000000" stroke-width="1" />
</svg>
