<?xml version="1.0" encoding="UTF-8"?>
<svg xmlns="http://www.w3.org/2000/svg" width="512" height="512" viewBox="0 0 512 512">
<rect width="100%" height="100%" fill="#ffffff"/>
<rect x="175" y="18" width="40" height="47" fill="#000000" stroke="#000000" stroke-width="1" />
<rect x="171" y="109" width="45" height="54" fill="#000000" stroke="#000000" stroke-width="1" />
<rect x="289" y="397" width="57" height="47" fill="#000000" stroke="#000000" stroke-width="1" />
<rect x="296" y="465" width="59" height="41" fill="#000000" stroke="#000000" stroke-width="1" />
<rect x="370" y="183" width="50" height="45" fill="#000000" stroke="#000000" stroke-width="1" />
<rect x="368" y="264" width="46" height="52" fill="#000000" stroke="#000000" stroke-width="1" />
<rect x="382" y="366" width="42" height="61" fill="#000000" stroke="#000000" stroke-width="1" />
<rect x="369" y="445" width="58" height="59" fill="#000000" stroke="#000000" stroke-width="1" />
<rect x="11" y="175" width="67" height="72" fill="#000000" stroke="#000000" stroke-width="1" />
<rect x="243" y="187" width="45" height="52" fill="#000000" stroke="#000000" stroke-width="1" />
<rect x="302" y="190" width="55" height="63" fill="#000000" stroke="#000000" stroke-width="1" />
<rect x="298" y="300" width="51" height="70" fill="#000000" stroke="#000000" stroke-width="1" />
<rect x="374" y="94" width="127" height="65" fill="#000000" stroke="#000000" stroke-width="1" />
<rect x="7" y="11" width="53" height="47" fill="#000000" stroke="#000000" stroke-width="1" />
<rect x="82" y="7" width="55" height="54" fill="#000000" stroke="#000000" stroke-width="1" />
<rect x="454" y="382" width="53" height="45" fill="#000000" stroke="#000000" stroke-width="1" />
<rect x="449" y="455" width="53" height="51" fill="#000000" stroke="#000000" stroke-width="1" />
<rect x="231" y="19" width="50" height="51" fill="#000000" stroke="#000000" stroke-width="1" />
<rect x="295" y="15" width="53" height="40" fill="#000000" stroke="#000000" stroke-width="1" />
<rect x="5" y="74" width="53" height="85" fill="#000000" stroke="#000000" stroke-width="1" />
<rect x="93" y="82" width="43" height="83" fill="#000000" stroke="#000000" stroke-width="1" />
<rect x="96" y="321" width="59" height="59" fill="#000000" stroke="#000000" stroke-width="1" />
<rect x="174" y="330" width="40" height="49" fill="#000000" stroke="#000000" stroke-width="1" />
<rect x="107" y="403" width="53" height="43" fill="#000000" stroke="#000000" stroke-width="1" />
<rect x="108" y="457" width="42" height="46" fill="#000000" stroke="#000000" stroke-width="1" />
<rect x="238" y="86" width="40" height="54" fill="#000000" stroke="#000000" stroke-width="1" />
<rect x="306" y="91" width="51" height="65" fill="#000000" stroke="#000000" stroke-width="1" />
<rect x="231" y="266" width="51" height="54" fill="#000000" stroke="#000000" stroke-width="1" />
<rect x="236" y="333" width="51" height="50" fill="#000000" stroke="#000000" stroke-width="1" />
<rect x="368" y="15" width="67" height="53" fill="#000000" stroke="#000000" stroke-width="1" />
<rect x="455" y="13" width="42" height="57" fill="#000000" stroke="#000000" stroke-width="1" />
<rect x="100" y="177" width="55" height="46" fill="#000000" stroke="#000000" stroke-width="1" />
<rect x="100" y="244" width="46" height="47" fill="#000000" stroke="#000000" stroke-width="1" />
<rect x="39" y="264" width="42" height="47" fill="#000000" stroke="#000000" stroke-width="1" />
<rect x="6" y="329" width="77" height="54" fill="#000000" stroke="#000000" stroke-width="1" />
<rect x="172" y="396" width="60" height="50" fill="#000000" stroke="#000000" stroke-width="1" />
<rect x="212" y="460" width="47" height="40" fill="#000000" stroke="#000000" stroke-width="1" />
<rect x="165" y="195" width="53" height="45" fill="#000000" stroke="#000000" stroke-width="1" />
<rect x="166" y="254" width="53" height="52" fill="#000000" stroke="#000000" stroke-width="1" />
<rect x="435" y="187" width="63" height="83" fill="#000000" stroke="#000000" stroke-width="1" />
<rect x="451" y="304" width="44" height="48" fill="#000000" stroke="#000000" stroke-width="1" />
<rect x="10" y="395" width="52" height="42" fill="#000000" stroke="#000000" stroke-width="1" />
<rect x="27" y="456" width="52" height="48" fill="#000000" stroke="#000000" stroke-width="1" />
</svg>
