<?xml version="1.0" encoding="UTF-8"?>
<svg xmlns="http://www.w3.org/2000/svg" width="512" height="512" viewBox="0 0 512 512">
<rect width="100%" height="100%" fill="#ffffff"/>
<rect x="149" y="0" width="76" height="81" fill="#ffffff" stroke="#000000" stroke-width="1" />
<rect x="149" y="81" width="82" height="89" fill="#ffffff" stroke="#000000" stroke-width="1" />
<rect x="266" y="389" width="96" height="60" fill="#ffffff" stroke="#000000" stroke-width="1" />
<rect x="266" y="449" width="96" height="63" fill="#ffffff" stroke="#000000" stroke-width="1" />
<rect x="362" y="170" width="63" height="88" fill="#ffffff" stroke="#000000" stroke-width="1" />
<rect x="362" y="258" width="63" height="101" fill="#ffffff" stroke="#000000" stroke-width="1" />
<rect x="362" y="359" width="70" height="78" fill="#ffffff" stroke="#000000" stroke-width="1" />
<rect x="362" y="437" width="70" height="75" fill="#ffffff" stroke="#000000" stroke-width="1" />
<rect x="0" y="170" width="91" height="86" fill="#ffffff" stroke="#000000" stroke-width="1" />
<rect x="224" y="170" width="69" height="84" fill="#ffffff" stroke="#000000" stroke-width="1" />
<rect x="293" y="170" width="69" height="116" fill="#ffffff" stroke="#000000" stroke-width="1" />
<rect x="293" y="286" width="69" height="103" fill="#ffffff" stroke="#000000" stroke-width="1" />
<rect x="362" y="86" width="150" height="84" fill="#ffffff" stroke="#000000" stroke-width="1" />
<rect x="0" y="0" width="72" height="68" fill="#ffffff" stroke="#000000" stroke-width="1" />
<rect x="72" y="0" width="77" height="68" fill="#ffffff" stroke="#000000" stroke-width="1" />
<rect x="432" y="359" width="80" height="90" fill="#ffffff" stroke="#000000" stroke-width="1" />
<rect x="432" y="449" width="80" height="63" fill="#ffffff" stroke="#000000" stroke-width="1" />
<rect x="225" y="0" width="65" height="81" fill="#ffffff" stroke="#000000" stroke-width="1" />
<rect x="290" y="0" width="72" height="81" fill="#ffffff" stroke="#000000" stroke-width="1" />
<rect x="0" y="68" width="67" height="102" fill="#ffffff" stroke="#000000" stroke-width="1" />
<rect x="67" y="68" width="82" height="102" fill="#ffffff" stroke="#000000" stroke-width="1" />
<rect x="91" y="314" width="72" height="75" fill="#ffffff" stroke="#000000" stroke-width="1" />
<rect x="163" y="314" width="61" height="75" fill="#ffffff" stroke="#000000" stroke-width="1" />
<rect x="98" y="389" width="68" height="62" fill="#ffffff" stroke="#000000" stroke-width="1" />
<rect x="98" y="451" width="68" height="61" fill="#ffffff" stroke="#000000" stroke-width="1" />
<rect x="231" y="81" width="70" height="89" fill="#ffffff" stroke="#000000" stroke-width="1" />
<rect x="301" y="81" width="61" height="89" fill="#ffffff" stroke="#000000" stroke-width="1" />
<rect x="224" y="254" width="69" height="74" fill="#ffffff" stroke="#000000" stroke-width="1" />
<rect x="224" y="328" width="69" height="61" fill="#ffffff" stroke="#000000" stroke-width="1" />
<rect x="362" y="0" width="82" height="86" fill="#ffffff" stroke="#000000" stroke-width="1" />
<rect x="444" y="0" width="68" height="86" fill="#ffffff" stroke="#000000" stroke-width="1" />
<rect x="91" y="170" width="69" height="62" fill="#ffffff" stroke="#000000" stroke-width="1" />
<rect x="91" y="232" width="69" height="82" fill="#ffffff" stroke="#000000" stroke-width="1" />
<rect x="0" y="256" width="91" height="60" fill="#ffffff" stroke="#000000" stroke-width="1" />
<rect x="0" y="316" width="91" height="73" fill="#ffffff" stroke="#000000" stroke-width="1" />
<rect x="166" y="389" width="100" height="62" fill="#ffffff" stroke="#000000" stroke-width="1" />
<rect x="166" y="451" width="100" height="61" fill="#ffffff" stroke="#000000" stroke-width="1" />
<rect x="160" y="170" width="64" height="77" fill="#ffffff" stroke="#000000" stroke-width="1" />
<rect x="160" y="247" width="64" height="67" fill="#ffffff" stroke="#000000" stroke-width="1" />
<rect x="425" y="170" width="87" height="129" fill="#ffffff" stroke="#000000" stroke-width="1" />
<rect x="425" y="299" width="87" height="60" fill="#ffffff" stroke="#000000" stroke-width="1" />
<rect x="0" y="389" width="98" height="61" fill="#ffffff" stroke="#000000" stroke-width="1" />
<rect x="0" y="450" width="98" height="62" fill="#ffffff" stroke="#000000" stroke-width="1" />
</svg>
